<?xml version="1.0" encoding="UTF-8"?>
<svg id="Warstwa_2" data-name="Warstwa 2" xmlns="http://www.w3.org/2000/svg" xmlns:xlink="http://www.w3.org/1999/xlink" viewBox="0 0 826.65 827.73">
  <defs>
    <style>
      .cls-1 {
        fill: url(#linear-gradient-2);
      }

      .cls-2 {
        fill: url(#linear-gradient-17);
      }

      .cls-3 {
        fill: url(#linear-gradient-15);
      }

      .cls-4 {
        fill: url(#linear-gradient-18);
      }

      .cls-5 {
        fill: url(#linear-gradient-14);
      }

      .cls-6 {
        fill: url(#linear-gradient-20);
      }

      .cls-7 {
        fill: url(#linear-gradient-6);
      }

      .cls-8 {
        fill: url(#linear-gradient-11);
      }

      .cls-9 {
        fill: url(#linear-gradient-10);
      }

      .cls-10 {
        fill: #91b3fa;
      }

      .cls-11 {
        fill: url(#linear-gradient-16);
      }

      .cls-12 {
        fill: #7d97f4;
      }

      .cls-13 {
        fill: url(#linear-gradient-21);
      }

      .cls-14 {
        fill: url(#linear-gradient-25);
      }

      .cls-15 {
        fill: url(#linear-gradient-5);
      }

      .cls-16 {
        fill: url(#linear-gradient-7);
      }

      .cls-17 {
        fill: url(#linear-gradient-24);
      }

      .cls-18 {
        fill: url(#linear-gradient-9);
      }

      .cls-19 {
        fill: url(#linear-gradient-22);
      }

      .cls-20 {
        fill: url(#linear-gradient-3);
      }

      .cls-21 {
        fill: url(#linear-gradient);
      }

      .cls-22 {
        fill: #bdd0fb;
      }

      .cls-23 {
        fill: url(#linear-gradient-23);
      }

      .cls-24 {
        fill: url(#linear-gradient-19);
      }

      .cls-25 {
        fill: url(#linear-gradient-4);
      }

      .cls-26 {
        fill: url(#linear-gradient-8);
      }

      .cls-27 {
        fill: url(#linear-gradient-12);
      }

      .cls-28 {
        fill: url(#linear-gradient-13);
      }
    </style>
    <linearGradient id="linear-gradient" x1="920.22" y1="1034.98" x2="209.15" y2="151.88" gradientUnits="userSpaceOnUse">
      <stop offset="0" stop-color="#dae3fe"/>
      <stop offset="1" stop-color="#e9effd"/>
    </linearGradient>
    <linearGradient id="linear-gradient-2" x1="60.05" y1="425.52" x2="227.88" y2="425.52" xlink:href="#linear-gradient"/>
    <linearGradient id="linear-gradient-3" x1="715.33" y1="908.01" x2="247.77" y2="-37.72" gradientTransform="translate(-25.23 -28.01) rotate(-.86)" gradientUnits="userSpaceOnUse">
      <stop offset="0" stop-color="#09005d"/>
      <stop offset="1" stop-color="#1a0f91"/>
    </linearGradient>
    <linearGradient id="linear-gradient-4" x1="-274.21" y1="964.23" x2="493.86" y2="346.17" gradientUnits="userSpaceOnUse">
      <stop offset="0" stop-color="#febbba"/>
      <stop offset="1" stop-color="#ff928e"/>
    </linearGradient>
    <linearGradient id="linear-gradient-5" x1="518.16" y1="-223.58" x2="467.16" y2="29.91" gradientUnits="userSpaceOnUse">
      <stop offset="0" stop-color="#4f52ff"/>
      <stop offset="1" stop-color="#4042e2"/>
    </linearGradient>
    <linearGradient id="linear-gradient-6" x1="973.88" y1="-412.71" x2="1054.25" y2="493.63" gradientTransform="translate(-509.31 120.52) rotate(10.05)" gradientUnits="userSpaceOnUse">
      <stop offset="0" stop-color="#e1473d"/>
      <stop offset="1" stop-color="#e9605a"/>
    </linearGradient>
    <linearGradient id="linear-gradient-7" x1="1081.51" y1="-422.25" x2="1161.87" y2="484.09" xlink:href="#linear-gradient-6"/>
    <linearGradient id="linear-gradient-8" x1="917.16" y1="-407.68" x2="997.52" y2="498.66" xlink:href="#linear-gradient-6"/>
    <linearGradient id="linear-gradient-9" x1="128.61" y1="601.68" x2="301.49" y2="601.68" xlink:href="#linear-gradient"/>
    <linearGradient id="linear-gradient-10" x1="93.57" y1="543.84" x2="112.68" y2="543.84" xlink:href="#linear-gradient"/>
    <linearGradient id="linear-gradient-11" x1="-2986.02" y1="320.82" x2="-2955.08" y2="398.44" gradientTransform="translate(3676.74)" xlink:href="#linear-gradient-6"/>
    <linearGradient id="linear-gradient-12" x1="-3168.74" y1="416.53" x2="-3111.58" y2="546.59" gradientTransform="translate(3641.31 -676.17) rotate(-12.16)" xlink:href="#linear-gradient-4"/>
    <linearGradient id="linear-gradient-13" x1="-2872.91" y1="817.73" x2="-2846.68" y2="817.73" gradientTransform="translate(3676.74)" xlink:href="#linear-gradient-3"/>
    <linearGradient id="linear-gradient-14" x1="-2983.78" y1="921.19" x2="-2946.02" y2="479.9" gradientTransform="translate(3676.74)" xlink:href="#linear-gradient-4"/>
    <linearGradient id="linear-gradient-15" x1="-2994.81" y1="812.94" x2="-2952.36" y2="812.94" gradientTransform="translate(3676.74)" xlink:href="#linear-gradient-3"/>
    <linearGradient id="linear-gradient-16" x1="-2907.83" y1="927.76" x2="-2870.06" y2="486.35" gradientTransform="translate(3676.74)" xlink:href="#linear-gradient-4"/>
    <linearGradient id="linear-gradient-17" x1="-2982.85" y1="476.18" x2="-2963.97" y2="651.34" gradientTransform="translate(3676.74)" xlink:href="#linear-gradient-5"/>
    <linearGradient id="linear-gradient-18" x1="1064.87" y1="236.82" x2="794.84" y2="527.85" xlink:href="#linear-gradient-5"/>
    <linearGradient id="linear-gradient-19" x1="708.9" y1="486.53" x2="689.9" y2="386.53" xlink:href="#linear-gradient-4"/>
    <linearGradient id="linear-gradient-20" x1="-2958.69" y1="511.5" x2="-2911.57" y2="511.5" gradientTransform="translate(3676.74)" xlink:href="#linear-gradient-4"/>
    <linearGradient id="linear-gradient-21" x1="-3119.32" y1="442.41" x2="-3057.43" y2="332.27" gradientTransform="translate(3649.97 -616.32) rotate(-11.2)" xlink:href="#linear-gradient-4"/>
    <linearGradient id="linear-gradient-22" x1="-3106.01" y1="346.5" x2="-3075.07" y2="424.12" gradientTransform="translate(3649.97 -616.32) rotate(-11.2)" xlink:href="#linear-gradient-6"/>
    <linearGradient id="linear-gradient-23" x1="-3106.14" y1="449.81" x2="-3044.26" y2="339.68" gradientTransform="translate(3649.97 -616.32) rotate(-11.2)" xlink:href="#linear-gradient-4"/>
    <linearGradient id="linear-gradient-24" x1="-3189.17" y1="400.71" x2="-3132.01" y2="530.77" gradientTransform="translate(3641.31 -676.17) rotate(-12.16)" xlink:href="#linear-gradient-4"/>
    <linearGradient id="linear-gradient-25" x1="-3142.44" y1="345.23" x2="-3127.04" y2="345.23" gradientTransform="translate(-2557.45) rotate(-180) scale(1 -1)" xlink:href="#linear-gradient-4"/>
  </defs>
  <g id="Metaphor_illustration" data-name="Metaphor illustration">
    <g>
      <path class="cls-21" d="M724.6,686.72c-16.33,17.19-31.79,28.28-44,37.04-143.53,102.98-313.35,72.96-349.45,65.63-53.3-10.83-156.32-31.75-230.81-119.34C-12.35,537.53,5.2,328.74,92.61,190.92,108.6,165.71,193.06,25.79,364.71,3.35c103.89-13.58,224.98,13.81,312.68,87.28,184.08,154.22,170.98,465.78,47.2,596.08Z"/>
      <g>
        <g>
          <path class="cls-10" d="M225.52,516.74s2.37-99.81-43.6-126.52c-45.97-26.71-133.38-43.41-136.65-186.73-1.92-83.9-3.99-120.59-5.39-136.58-.54-6.24,5-11.28,11.16-10.12,43.54,8.2,184.97,41.96,214.63,138.5,35.15,114.45-40.15,321.45-40.15,321.45Z"/>
          <path class="cls-22" d="M84.72,96.66c47.79,42.62,103.05,118.06,132.51,193.49,3.78,12.43,14.84,38.87,19.64,85.84,4.29,39.18,2.16,80.58-3.04,107.98-.33,1.73-2,2.87-3.73,2.54-2.98-.57-2.58-3.77-2.56-3.67,5.94-46.82,3.47-105.09-10.14-157.68-17.39-64.56-56.18-127.16-96.29-180.25l-4.13-5.23c-31.08-39.92-37.63-40.21-34.72-42.99,.69-.66,1.76-.66,2.46-.04Z"/>
        </g>
        <g>
          <path class="cls-22" d="M320.36,689.34c6.4,2.65-63.79-74.9-92.36-201.91-13.46-59.85-18.43-135.6-54.74-162.59-30.22-22.46-126.79-.88-158.33,6.99-3.94,.98-4.96,6.11-1.69,8.52,16.13,11.88,50.81,40.1,61.3,70.11,13.82,39.56,53.75,62.73,88.48,67.47,34.72,4.74,54.23,10.25,74.43,64,20.21,53.75,64.72,139.89,82.91,147.41Z"/>
          <path class="cls-1" d="M60.91,345.97c40.83-.9,85.73,14.88,110.14,48.3l2.31,3.19c5.33,7.49,36.29,61.16,54.45,106.12,.23,.56-.04,1.2-.61,1.43-.95,.38-1.51-.66-1.41-.57-12.27-25.28-29.6-57.21-43.31-81.04-14.73-26.02-24.99-43.62-55.78-59.14-34.23-16.65-65.9-16.56-65.81-16.54-.48-.02-.86-.43-.84-.91,.02-.47,.4-.83,.86-.84Z"/>
        </g>
      </g>
      <g>
        <g>
          <path class="cls-20" d="M228.15,56.38c-.75,122.13-2.82,543.4,3.42,692.59,.66,15.8,11.69,28.33,25.21,28.65,66.88,1.56,312.02,4.36,421.27-2.64,22.76-1.46,40.54-23.31,40.61-49.98,.35-128.19-.05-488.71-14.44-653.65-1.73-19.76-15.23-35.32-32.15-37.04-72.92-7.43-319.33-24.56-413.68-15.97-17.02,1.55-30.12,18.07-30.24,38.04Z"/>
          <path class="cls-25" d="M258.54,93.39c-2.12,98.6-8.55,426.62-3.13,547.79,.79,17.71,12.95,31.86,28.09,32.67,62.36,3.33,275.03,9.54,366.28-.39,16.43-1.79,29.11-17.55,29.7-36.84,3.12-100.61,11.83-406.08,6.58-525.9-.84-19.11-13.73-34.54-30.05-36.01-67.5-6.07-293.59-19.52-371.16-13.4-14.56,1.15-25.95,15-26.32,32.07Z"/>
          <path class="cls-15" d="M419.1,37.65h0c.06,3.75,2.6,6.8,5.8,6.95,15.8,.73,60.32,2.8,80.22,3.85,3.92,.21,6.94-3.96,6.13-8.46l-.14-.77c-.55-3.07-2.77-5.35-5.44-5.6-13.46-1.24-54.06-4.62-80.9-3.1-3.23,.18-5.72,3.35-5.66,7.13Z"/>
        </g>
        <g>
          <path class="cls-7" d="M377.97,258.99c-5.32,138.35,52.4,213.85,140.68,258.92l61.56-33.76c-91.11-57.11-147.5-139.89-156.81-257.52l-45.43,32.36Z"/>
          <path class="cls-16" d="M515.57,516.3c55.17,19.4,61.83,21.14,113.78-1.44,5.82-2.53,7.66-9.97,3.63-14.87l-69.7-84.58c-2.72-3.3-7.85-3.08-10.27,.46l-18.84,27.5-18.59,72.93Z"/>
          <path class="cls-26" d="M375.44,261.96c3.59-52.92,5.93-60.58,45.69-98.09,4.62-4.36,12.18-3.12,15.09,2.52l50.34,97.35c1.97,3.8-.26,8.43-4.46,9.27l-32.7,6.5-68.52-10.69c-3.31-.52-5.67-3.52-5.44-6.86Z"/>
        </g>
      </g>
      <g>
        <g>
          <path class="cls-12" d="M481.45,809.99H32.8c-18.11,0-32.8-13.43-32.8-30v-267.27c0-15.92,13.59-29.07,30.97-29.96l465.97-23.76c19.51-.99,35.64,13.74,34.57,31.59l-17.31,291.02c-.95,15.91-15.33,28.37-32.75,28.37Z"/>
          <path class="cls-10" d="M267.6,648.72l245.25-186.86c-4.78-2.09-10.2-3.15-15.91-2.86L30.97,482.76c-8.01,.41-15.22,3.43-20.66,8.12l183.55,156.16c19.93,16.95,52.71,17.7,73.74,1.67Z"/>
        </g>
        <path class="cls-18" d="M233.51,639.46c-12.19,0-24.33-3.99-34.08-11.87l-69.16-55.85c-2.03-1.64-2.22-4.47-.43-6.33,1.79-1.86,4.89-2.03,6.92-.39l69.16,55.85c14.69,11.86,36.07,12.84,51.98,2.38l35.84-23.56c2.21-1.45,5.26-.98,6.84,1.02,1.58,2.01,1.08,4.81-1.12,6.26l-35.84,23.56c-9.09,5.97-19.62,8.93-30.11,8.93Z"/>
        <path class="cls-9" d="M107.78,552.08c-1.15,0-2.31-.37-3.24-1.12l-9.31-7.52c-2.03-1.64-2.22-4.47-.43-6.33,1.79-1.86,4.89-2.03,6.92-.39l9.31,7.52c2.03,1.64,2.22,4.47,.43,6.33-.97,1-2.32,1.52-3.68,1.52Z"/>
      </g>
      <g>
        <path class="cls-8" d="M709.06,362.57s10.43,5.07,12.35,10.9c1.54,4.68,13.07,5.28,14.21,14.48,.59,4.75,4.1,8.55,8.83,9.28,11.78,1.81,29.93,7.92,32.84,28.38,2.22,15.61-5.74,21.53-14.09,23.58-6.13,1.5-10.21,7.47-8.97,13.66,1.19,5.94-.58,12.81-10.88,18.24-23.06,12.17-46.09-28.83-46.09-28.83l-4.72-71.59,16.52-18.1Z"/>
        <path class="cls-27" d="M583.58,345.6s46.05,72.83,100.8,86.9c0,0-10.67,30.39-18.9,33.87,0,0-67.36-56.21-84.67-110.42l2.78-10.35Z"/>
        <path class="cls-28" d="M803.86,811.43l1.49,12.27c.28,2.33,2.12,4.17,4.44,4.43,3.93,.45,10.24,.91,16.42,.26,2.71-.29,4.47-3.03,3.64-5.63-1.51-4.74-4.26-11.85-8.23-16.03h-13.61c-2.52,0-4.47,2.2-4.16,4.7Z"/>
        <path class="cls-5" d="M697.26,667.72l-2.3,13.51s7.69,77.92,9.06,109.08c.21,4.89-1.05,9.72-3.61,13.88l-13.38,21.72,33.99-20.06,.68-4.15-5.56-7.65,7.29-87.29c.43-5.13-.63-10.27-3.05-14.81l-7.03-13.21-16.09-11.03Z"/>
        <path class="cls-3" d="M684.8,829.06h10.85c2.03,0,3.95-.93,5.18-2.54,3.38-4.39,10.39-12.97,13.74-13.19,4.51-.3,3.93,15.73,3.93,15.73h2.53l3.2-19.92c.81-5.01-1.69-9.98-6.19-12.33,0,0-1.03,7.62-6.62,11-5.59,3.37-22.75,15.45-22.75,15.45,0,0-2.1-.3-4.41,.12-3.42,.62-2.94,5.69,.53,5.69Z"/>
        <path class="cls-11" d="M743.82,674.14s45.06,85.48,52.23,105c7.16,19.52,9.67,35.8,9.77,37.34,.15,2.41,3.15,4.72,11.41,4.72,4.26,0,6.35-1.71,7.37-3.36,.87-1.41,.92-3.18,.18-4.66-2.61-5.28-10.88-22.13-13.94-29.78-3.66-9.13-11.53-50.5-15.84-64.89s-9.19-29.99-27.99-44.36c0,0-12.9-12.63-23.19,0Z"/>
        <path class="cls-2" d="M715.36,534.07c-11.62-49.26,17.82-77.12,17.82-77.12-18.58-17.84-52.44-25.95-52.44-25.95,0,0-32.31,23.62-28.47,42.1,2.25,10.83,22.71,64.9,22.71,64.9,0,0,18.92,8.95,40.38-3.93Z"/>
        <path class="cls-4" d="M741.13,558.45c-4.73-14.25-25.77-24.39-25.77-24.39-21.46,12.89-40.38,3.93-40.38,3.93,0,0-4.24,16.22-1.31,31.29,2.93,15.07,21.3,111.94,21.3,111.94,28.95,5.87,73.48-5.9,73.48-5.9-18.44-32.74-22.58-102.62-27.31-116.87Z"/>
        <path class="cls-24" d="M701.86,398.45l9.45,42.45c.9,3.74-2.5,3.13-6.28,2.41-6.19-1.17-14.17-3.57-16.84-8.39-.27-.49-.41-1.04-.48-1.6l-4.06-29.44c-.32-2.34,.94-4.6,3.1-5.56l7.84-3.47c3.02-1.34,6.51,.38,7.28,3.59Z"/>
        <path class="cls-6" d="M733.18,456.95s65.96,47.19,8.44,96.78c0,0-2.19,2.48-6.51,3.77-2.18,.65-8.62,5.53-11.89,8.07-1.05,.82-2.57,.54-3.27-.59-.55-.88-.62-1.99-.17-2.93l8.17-17.27c2.27-2.12,5.74-2.27,8.18-.35,1.56,1.22,3.84,.71,4.71-1.07,4.45-9.06,12.84-35.7-21.53-65.8-1.29-1.13-1.62-3-.83-4.53,2.41-4.64,7.94-13.85,14.7-16.09Z"/>
        <g>
          <path class="cls-13" d="M683.76,359.75s-10.06,6.81-14.39,24.16c-4.32,17.34,2.7,23.57,9.9,23.19,7.2-.38,17.64-2.61,26.69-15.05,9.05-12.44-9.03-40.61-22.21-32.29Z"/>
          <path class="cls-19" d="M696.85,385.04s3.69-24.85-16.95-21.05l-4.17,4.34s-10.1-11.37,1.08-19.97c11.18-8.6,26.69-6.4,35.27,9.26,8.58,15.65,11.7,26.65,4.5,36.38-7.19,9.73-12.6,1.38-12.6,1.38,0,0,3.3-8.42,.56-12.03-2.74-3.61-6.27,2.1-6.27,2.1l-1.42-.41Z"/>
          <path class="cls-23" d="M699.67,387.17s1.82-12.79,8.35-9.13c6.53,3.66-2.35,11.94-5.92,14.77l-2.44-5.63Z"/>
        </g>
        <g>
          <path class="cls-17" d="M583.89,360.59c-.14,1.5,5.45,2.54,7.23-3.86-.49-2.78-1.36-14.96-3.49-16.85-11.36-10.08-31.6-21.41-31.6-21.41-2.26,3.46,.71,5.73,.71,5.73l10.11,6.82c-1.05,3.49-2.59,6.58-2.77,10.57-.13,3.02,.98,5.98,2.99,8.27,2.01,2.3,4.72,5.27,7.16,7.52,4.62,4.26,9.67,3.22,9.67,3.22Z"/>
          <path class="cls-14" d="M578.4,355.63l1.54-.64c-.21-.5-5.06-12.29-7.4-14.74-.89-.93-1.32-1.73-1.28-2.37,.02-.35,.19-.69,.52-1.04l8.18,4.37,3.61,5.66,1.41-.9-3.85-6.02-9.58-5.12-.43,.35c-.97,.79-1.47,1.64-1.53,2.6-.07,1.14,.5,2.33,1.74,3.63,1.77,1.85,5.7,10.89,7.07,14.22Z"/>
        </g>
      </g>
    </g>
  </g>
</svg>