<?xml version="1.0" encoding="UTF-8"?>
<svg xmlns="http://www.w3.org/2000/svg" xmlns:xlink="http://www.w3.org/1999/xlink" viewBox="0 0 831.86 831.15">
  <defs>
    <style>
      .cls-1 {
        fill: url(#linear-gradient-2);
      }

      .cls-2, .cls-3, .cls-4, .cls-5, .cls-6, .cls-7 {
        fill: #fff;
      }

      .cls-8 {
        fill: url(#linear-gradient-17);
      }

      .cls-9 {
        fill: url(#linear-gradient-43);
      }

      .cls-10 {
        fill: url(#linear-gradient-15);
      }

      .cls-11 {
        fill: none;
        stroke: #fff;
        stroke-miterlimit: 10;
      }

      .cls-12 {
        fill: url(#linear-gradient-18);
      }

      .cls-13 {
        fill: url(#linear-gradient-40);
      }

      .cls-14 {
        fill: url(#linear-gradient-28);
      }

      .cls-15 {
        fill: url(#linear-gradient-14);
      }

      .cls-16 {
        fill: url(#linear-gradient-36);
      }

      .cls-17 {
        fill: url(#linear-gradient-20);
      }

      .cls-18 {
        fill: url(#linear-gradient-6);
      }

      .cls-19 {
        isolation: isolate;
      }

      .cls-3 {
        opacity: .5;
      }

      .cls-20 {
        fill: url(#linear-gradient-35);
      }

      .cls-21 {
        fill: url(#linear-gradient-32);
      }

      .cls-22 {
        fill: url(#linear-gradient-11);
      }

      .cls-4 {
        opacity: .42;
      }

      .cls-23 {
        fill: url(#linear-gradient-39);
      }

      .cls-24 {
        fill: url(#linear-gradient-10);
      }

      .cls-5 {
        opacity: .55;
      }

      .cls-25 {
        fill: #91b3fa;
      }

      .cls-6 {
        mix-blend-mode: soft-light;
      }

      .cls-26 {
        fill: url(#linear-gradient-37);
      }

      .cls-27 {
        fill: url(#linear-gradient-16);
      }

      .cls-28 {
        opacity: .3;
      }

      .cls-29 {
        fill: url(#linear-gradient-31);
      }

      .cls-30 {
        fill: url(#linear-gradient-41);
      }

      .cls-31 {
        fill: url(#linear-gradient-21);
      }

      .cls-32 {
        fill: url(#linear-gradient-25);
      }

      .cls-33 {
        fill: url(#linear-gradient-5);
      }

      .cls-34 {
        fill: url(#linear-gradient-45);
      }

      .cls-35 {
        fill: url(#linear-gradient-34);
      }

      .cls-36 {
        fill: url(#linear-gradient-7);
      }

      .cls-37 {
        fill: url(#linear-gradient-24);
      }

      .cls-7 {
        opacity: .28;
      }

      .cls-38 {
        fill: url(#linear-gradient-9);
      }

      .cls-39 {
        fill: url(#linear-gradient-22);
      }

      .cls-40 {
        fill: url(#linear-gradient-42);
      }

      .cls-41 {
        fill: url(#linear-gradient-3);
      }

      .cls-42 {
        fill: url(#linear-gradient);
      }

      .cls-43 {
        fill: url(#linear-gradient-27);
      }

      .cls-44 {
        fill: url(#linear-gradient-33);
      }

      .cls-45 {
        fill: url(#linear-gradient-38);
      }

      .cls-46 {
        fill: url(#linear-gradient-29);
      }

      .cls-47 {
        fill: url(#linear-gradient-30);
      }

      .cls-48 {
        fill: #bdd0fb;
      }

      .cls-49 {
        fill: url(#linear-gradient-23);
      }

      .cls-50 {
        fill: url(#linear-gradient-19);
      }

      .cls-51 {
        fill: url(#linear-gradient-4);
      }

      .cls-52 {
        fill: url(#linear-gradient-8);
      }

      .cls-53 {
        fill: url(#linear-gradient-44);
      }

      .cls-54 {
        fill: url(#linear-gradient-12);
      }

      .cls-55 {
        fill: url(#linear-gradient-13);
      }

      .cls-56 {
        fill: url(#linear-gradient-26);
      }
    </style>
    <linearGradient id="linear-gradient" x1="929.86" y1="1068.42" x2="195.82" y2="156.78" gradientUnits="userSpaceOnUse">
      <stop offset="0" stop-color="#dae3fe"/>
      <stop offset="1" stop-color="#e9effd"/>
    </linearGradient>
    <linearGradient id="linear-gradient-2" x1="357.26" y1="624.06" x2="528.6" y2="110.04" gradientUnits="userSpaceOnUse">
      <stop offset="0" stop-color="#09005d"/>
      <stop offset="1" stop-color="#1a0f91"/>
    </linearGradient>
    <linearGradient id="linear-gradient-3" x1="386.36" y1="842.87" x2="449.31" y2="498.71" xlink:href="#linear-gradient-2"/>
    <linearGradient id="linear-gradient-4" x1="489.84" y1="237.51" x2="162.86" y2="534.5" gradientUnits="userSpaceOnUse">
      <stop offset="0" stop-color="#4f52ff"/>
      <stop offset="1" stop-color="#4042e2"/>
    </linearGradient>
    <linearGradient id="linear-gradient-5" x1="-3738.92" y1="517.66" x2="-3662.14" y2="331.07" gradientTransform="translate(-3606.21 12.67) rotate(-178.92) scale(1 -1)" xlink:href="#linear-gradient-2"/>
    <linearGradient id="linear-gradient-6" x1="98.99" y1="540.47" x2="191.99" y2="413.47" gradientUnits="userSpaceOnUse">
      <stop offset="0" stop-color="#febbba"/>
      <stop offset="1" stop-color="#ff928e"/>
    </linearGradient>
    <linearGradient id="linear-gradient-7" x1="115.69" y1="552.7" x2="208.69" y2="425.7" xlink:href="#linear-gradient-6"/>
    <linearGradient id="linear-gradient-8" x1="-3672.45" y1="817.12" x2="-3652.27" y2="817.12" gradientTransform="translate(-3641.52) rotate(-180) scale(1 -1)" xlink:href="#linear-gradient-2"/>
    <linearGradient id="linear-gradient-9" x1="172.82" y1="711.54" x2="43.82" y2="814.54" xlink:href="#linear-gradient-6"/>
    <linearGradient id="linear-gradient-10" x1="-3743.92" y1="807.85" x2="-3711.36" y2="807.85" gradientTransform="translate(-3641.52) rotate(-180) scale(1 -1)" xlink:href="#linear-gradient-2"/>
    <linearGradient id="linear-gradient-11" x1="-3699.24" y1="895.92" x2="-3670.27" y2="557.34" gradientTransform="translate(-3641.52) rotate(-180) scale(1 -1)" xlink:href="#linear-gradient-6"/>
    <linearGradient id="linear-gradient-12" x1="-3942.5" y1="738.02" x2="-3810.07" y2="608.94" gradientTransform="translate(-3641.52) rotate(-180) scale(1 -1)" gradientUnits="userSpaceOnUse">
      <stop offset="0" stop-color="#ff928e"/>
      <stop offset="1" stop-color="#fe7062"/>
    </linearGradient>
    <linearGradient id="linear-gradient-13" x1="58.07" y1="651.01" x2="131.56" y2="651.01" xlink:href="#linear-gradient-4"/>
    <linearGradient id="linear-gradient-14" x1="-3760.67" y1="557.23" x2="-3755.23" y2="517.43" gradientTransform="translate(-3641.52) rotate(-180) scale(1 -1)" xlink:href="#linear-gradient-6"/>
    <linearGradient id="linear-gradient-15" x1="2858.5" y1="-2773.34" x2="3016.5" y2="-2851.34" gradientTransform="translate(-3641.52) rotate(-180) scale(1 -1)" xlink:href="#linear-gradient-6"/>
    <linearGradient id="linear-gradient-16" x1="2827.12" y1="-2836.87" x2="2985.12" y2="-2914.87" gradientTransform="translate(-3641.52) rotate(-180) scale(1 -1)" xlink:href="#linear-gradient-6"/>
    <linearGradient id="linear-gradient-17" x1="-11909.36" y1="2987.84" x2="-11872.93" y2="3029.73" gradientTransform="translate(-12150.58 694.94) rotate(164.86) scale(1 -1)" xlink:href="#linear-gradient-6"/>
    <linearGradient id="linear-gradient-18" x1="-3777.33" y1="504.02" x2="-3699.87" y2="315.76" gradientTransform="translate(-3606.21 12.67) rotate(-178.92) scale(1 -1)" xlink:href="#linear-gradient-2"/>
    <linearGradient id="linear-gradient-19" x1="-11900.26" y1="2979.93" x2="-11863.83" y2="3021.81" gradientTransform="translate(-12150.58 694.94) rotate(164.86) scale(1 -1)" xlink:href="#linear-gradient-6"/>
    <linearGradient id="linear-gradient-20" x1="787.42" y1="-124.06" x2="753.39" y2="-53.92" gradientTransform="translate(-84.3 396.26) rotate(9.25)" xlink:href="#linear-gradient-2"/>
    <linearGradient id="linear-gradient-21" x1="752.88" y1="367.81" x2="648.87" y2="601.81" gradientTransform="matrix(1, 0, 0, 1, 0, 0)" xlink:href="#linear-gradient-12"/>
    <linearGradient id="linear-gradient-22" x1="599.96" y1="538.34" x2="671.72" y2="711.69" xlink:href="#linear-gradient-6"/>
    <linearGradient id="linear-gradient-23" x1="-5587.44" y1="537.97" x2="-5515.68" y2="711.32" gradientTransform="translate(-4860.26) rotate(-180) scale(1 -1)" xlink:href="#linear-gradient-6"/>
    <linearGradient id="linear-gradient-24" x1="663.7" y1="560.94" x2="659.99" y2="711.27" xlink:href="#linear-gradient-2"/>
    <linearGradient id="linear-gradient-25" x1="744.85" y1="680.63" x2="705.73" y2="624.96" xlink:href="#linear-gradient-4"/>
    <linearGradient id="linear-gradient-26" x1="732.66" y1="580.95" x2="691.26" y2="693.07" xlink:href="#linear-gradient-6"/>
    <linearGradient id="linear-gradient-27" x1="582.47" y1="676.56" x2="604.67" y2="626.16" xlink:href="#linear-gradient-4"/>
    <linearGradient id="linear-gradient-28" x1="649.72" y1="547.16" x2="608.31" y2="659.34" xlink:href="#linear-gradient-6"/>
    <linearGradient id="linear-gradient-29" x1="459.98" y1="823.04" x2="585.49" y2="713.43" xlink:href="#linear-gradient-4"/>
    <linearGradient id="linear-gradient-30" x1="644.05" y1="637.42" x2="642.55" y2="472.43" xlink:href="#linear-gradient-4"/>
    <linearGradient id="linear-gradient-31" x1="662.96" y1="552.66" x2="662" y2="469.58" xlink:href="#linear-gradient-6"/>
    <linearGradient id="linear-gradient-32" x1="752.53" y1="-10.87" x2="755.5" y2="-83.16" gradientTransform="translate(-84.3 396.26) rotate(9.25)" xlink:href="#linear-gradient-6"/>
    <linearGradient id="linear-gradient-33" x1="787.67" y1="-133.94" x2="749.38" y2="-55.01" gradientTransform="translate(-84.3 396.26) rotate(9.25)" xlink:href="#linear-gradient-2"/>
    <linearGradient id="linear-gradient-34" x1="399.29" y1="850.36" x2="403.95" y2="737.07" gradientTransform="translate(141.79 -273.77) rotate(-7.64)" xlink:href="#linear-gradient-6"/>
    <linearGradient id="linear-gradient-35" x1="881.88" y1="-109.35" x2="275.88" y2="454.65" gradientTransform="matrix(1, 0, 0, 1, 0, 0)" xlink:href="#linear-gradient-12"/>
    <linearGradient id="linear-gradient-36" x1="934.27" y1="-53.06" x2="328.27" y2="510.94" gradientTransform="matrix(1, 0, 0, 1, 0, 0)" xlink:href="#linear-gradient-12"/>
    <linearGradient id="linear-gradient-37" x1="995.26" y1="12.47" x2="389.26" y2="576.47" gradientTransform="matrix(1, 0, 0, 1, 0, 0)" xlink:href="#linear-gradient-12"/>
    <linearGradient id="linear-gradient-38" x1="975.87" y1="-8.36" x2="369.87" y2="555.64" gradientTransform="matrix(1, 0, 0, 1, 0, 0)" xlink:href="#linear-gradient-12"/>
    <linearGradient id="linear-gradient-39" x1="921.58" y1="-66.7" x2="315.58" y2="497.3" gradientTransform="matrix(1, 0, 0, 1, 0, 0)" xlink:href="#linear-gradient-12"/>
    <linearGradient id="linear-gradient-40" x1="929.63" y1="-58.05" x2="323.63" y2="505.95" gradientTransform="matrix(1, 0, 0, 1, 0, 0)" xlink:href="#linear-gradient-12"/>
    <linearGradient id="linear-gradient-41" x1="824.41" y1="-171.1" x2="218.41" y2="392.9" gradientTransform="matrix(1, 0, 0, 1, 0, 0)" xlink:href="#linear-gradient-12"/>
    <linearGradient id="linear-gradient-42" x1="825.94" y1="-169.46" x2="219.94" y2="394.54" gradientTransform="matrix(1, 0, 0, 1, 0, 0)" xlink:href="#linear-gradient-12"/>
    <linearGradient id="linear-gradient-43" x1="895.98" y1="-94.2" x2="289.98" y2="469.8" gradientTransform="matrix(1, 0, 0, 1, 0, 0)" xlink:href="#linear-gradient-12"/>
    <linearGradient id="linear-gradient-44" x1="860.07" y1="-132.8" x2="254.06" y2="431.21" gradientTransform="matrix(1, 0, 0, 1, 0, 0)" xlink:href="#linear-gradient-12"/>
    <linearGradient id="linear-gradient-45" x1="864.92" y1="-127.57" x2="258.92" y2="436.43" gradientTransform="matrix(1, 0, 0, 1, 0, 0)" xlink:href="#linear-gradient-12"/>
  </defs>
  <g class="cls-19">
    <g id="Warstwa_2" data-name="Warstwa 2">
      <g id="Metaphor_illustration" data-name="Metaphor illustration">
        <g>
          <path class="cls-42" d="M727.92,708.9c-16.86,17.75-32.81,29.2-45.42,38.24-148.16,106.31-323.48,75.32-360.74,67.75-55.02-11.17-161.37-32.78-238.27-123.2-116.33-136.8-98.22-352.33-7.98-494.61C92.02,171.07,179.21,26.63,356.41,3.46c107.24-14.02,232.25,14.26,322.78,90.1,190.03,159.21,176.5,480.83,48.73,615.34Z"/>
          <g>
            <path class="cls-48" d="M28.14,54.89c-.46-3.33,4.33-5.07,6.93-2.53,26.36,25.81,88.43,101.5,60.01,220.97-35.65,149.89-4.2,208.75,38.25,246.83,0,0-61.15-21.76-95.3-81.7-83.84-147.15-1.69-324.31-9.89-383.58Z"/>
            <path class="cls-6" d="M45.41,104.37c1.99,17.24,3.58,34.5,4.44,51.77,.97,17.26,1.33,34.53,1.07,51.77-.34,17.23-1.04,34.45-2.6,51.59-1.46,17.15-3.78,34.21-6.17,51.33-2.28,17.12-4.69,34.36-5.07,51.91-.39,17.51,1.63,35.4,7.35,52.53,1.43,4.27,2.96,8.54,4.76,12.69,1.71,4.18,3.64,8.3,5.65,12.39,4.07,8.17,8.76,16.13,14.1,23.78,10.73,15.27,24.1,29.17,39.12,41.28,1.58,1.27,4.02,1.23,5.45-.11,1.4-1.31,1.31-3.37-.19-4.66h-.01c-3.56-3.04-7.08-6.11-10.43-9.29-1.7-1.57-3.33-3.2-4.98-4.81-1.59-1.66-3.25-3.26-4.77-4.95-6.23-6.69-11.93-13.74-17.01-21.1-10.23-14.67-18.01-30.68-23.52-47.04-2.65-8.21-4.6-16.55-5.8-24.98-1.2-8.43-1.65-16.93-1.54-25.45,.21-17.05,2.44-34.13,4.58-51.27,2.11-17.15,4.1-34.39,5.26-51.7,.61-8.65,1.04-17.32,1.29-25.99,.15-4.33,.21-8.67,.27-13.01,.02-4.34,0-8.68-.05-13.02-.24-17.36-1.1-34.71-2.59-52.04-1.58-17.32-3.69-34.61-6.57-51.82-.08-.49-.61-.84-1.17-.79-.55,.06-.94,.48-.88,.96Z"/>
          </g>
          <g>
            <path class="cls-25" d="M48.97,419.13c-3.85,3.38-9.9,1.74-11.57-3.1-9.21-26.72-28.43-104.63,23.11-187.49,43.52-69.97,60.46-112.04,66.83-131.68,1.35-4.15,7.21-4.17,8.59-.03,15.25,45.68,52.38,199.67-86.97,322.3Z"/>
            <path class="cls-6" d="M42.87,415.83c-.13,.01-.26,0-.39,0-1.1-.12-1.89-1.11-1.77-2.2,.14-1.24,14.23-125.62,70.34-225.64,.54-.96,1.76-1.31,2.72-.77,.96,.54,1.31,1.76,.77,2.72-55.7,99.29-69.71,222.88-69.85,224.12-.11,.97-.88,1.7-1.82,1.78Z"/>
          </g>
          <g>
            <path class="cls-1" d="M799.67,642.71c0,7.37-6.04,13.4-13.42,13.4H60.79c-7.38,0-13.42-6.03-13.42-13.4l-6.04-416.91c0-7.37,8.69-21.76,24.6-20.68l709.01-18.35c9.26-.24,18.21,3.32,24.77,9.86,6.56,6.53,10.14,15.47,9.92,24.72l-9.96,421.36Z"/>
            <path class="cls-25" d="M786.43,629.85c0,6.98-5.71,12.69-12.69,12.69H78.28c-6.98,0-12.69-5.71-12.69-12.69l-5.7-378.47c.67-22.78,20.64-30.96,32.74-30.48l679.54-18.23c6.5-.17,12.79,2.33,17.4,6.93,4.6,4.6,7.12,10.88,6.96,17.39l-10.11,402.87Z"/>
            <g>
              <path class="cls-2" d="M73.1,449.38c-.65,0-1.19-.52-1.2-1.18l-.45-30.69c0-.66,.52-1.21,1.18-1.22,.64-.04,1.21,.52,1.22,1.18l.45,30.69c0,.66-.52,1.21-1.18,1.22h-.02Z"/>
              <path class="cls-2" d="M72,374.17c-.65,0-1.19-.52-1.2-1.18l-1.73-117.56c.04-7.9,2.47-14.22,7.24-18.79,8.67-8.3,22.22-7.89,22.79-7.86l216.99-5.82c.65-.06,1.21,.5,1.23,1.16,.02,.66-.5,1.21-1.17,1.23l-217.06,5.82c-.62-.02-13.19-.41-21.13,7.2-4.28,4.1-6.47,9.84-6.5,17.04l1.73,117.53c0,.66-.52,1.21-1.18,1.22h-.02Z"/>
            </g>
            <path class="cls-41" d="M814.11,690.72H20.97c-9.76,0-17.74-8.24-17.74-18.32h0c0-10.07,7.99-18.32,17.74-18.32H814.11c9.76,0,17.74,8.24,17.74,18.32h0c0,10.07-7.98,18.32-17.74,18.32Z"/>
          </g>
          <g>
            <path class="cls-4" d="M763.71,313.49l-671.4,4.55c-6.69,.05-12.14-4.09-12.14-9.2v-57.59c0-4.95,5.12-9.01,11.58-9.2l671.4-19.36c6.82-.2,12.49,3.98,12.49,9.2v72.4c0,5.05-5.32,9.16-11.93,9.2Z"/>
            <path class="cls-5" d="M331.35,338.42h196.69c11.35,0,20.56,9.21,20.56,20.56v199.86c0,6.96-5.65,12.61-12.61,12.61h-204.65c-15.55,0-28.17-12.62-28.17-28.17v-176.7c0-15.55,12.62-28.17,28.17-28.17Z"/>
            <path class="cls-7" d="M551.77,610.84c-.38,7.26-6.36,12.96-13.62,13.01l-452.62,2.86c-5.61-.05-10.13-4.61-10.13-10.21v-16.32c0-7.8,6.32-14.12,14.12-14.12h457.82c3.01,0,5.45,2.44,5.45,5.45l-1.02,19.33Z"/>
            <rect class="cls-5" x="75.4" y="331.77" width="213.52" height="234.32" rx="25.43" ry="25.43"/>
            <path class="cls-5" d="M605.26,329.51h157.18c5.5,0,9.97,4.47,9.97,9.97v273.95c0,7.54-6.12,13.66-13.66,13.66h-180.43c-7.41,0-13.43-6.02-13.43-13.43v-243.79c0-22.28,18.09-40.37,40.37-40.37Z"/>
          </g>
          <g>
            <g>
              <g>
                <path class="cls-51" d="M411.52,320.24l-219.05-1.96c-4.3-.04-7.79,3.45-7.77,7.74l.96,168.09c.02,4.32,3.6,7.78,7.92,7.65,39.61-1.18,215.45-6.39,223.21-6.07,7.67,.32,3.5-134.71,2.36-168.03-.14-4.12-3.5-7.39-7.62-7.43Z"/>
                <path class="cls-11" d="M193.37,494.95c32.56-.97,190.11-5.65,219.11-6.06,2.73-15.38,2.71-77.91-.15-160.99-.02-.47-.4-.85-.88-.85l-219.05-1.96c-.31,0-.52,.14-.64,.26-.17,.17-.26,.38-.26,.63l.96,168.09c0,.49,.39,.88,.87,.88h.03Z"/>
              </g>
              <path class="cls-2" d="M385.08,473.82H241.48c-4.47,0-7.25-4.86-4.98-8.71l56.85-96.64c2.37-4.03,8.3-3.72,10.24,.53l27.45,60.15c1.63,3.57,6.27,4.51,9.16,1.86l11.1-10.18c2.58-2.36,6.65-1.91,8.65,.96l29.87,42.95c2.66,3.83-.08,9.08-4.74,9.08Z"/>
              <circle class="cls-2" cx="243.43" cy="365.54" r="20.64" transform="translate(-149.12 562.49) rotate(-82.98)"/>
            </g>
            <g>
              <g>
                <path class="cls-33" d="M41,523.88c5.61-20.73,22.92-37.76,42.22-42.07,3.55-.79,5.6-4.4,4.77-7.94,0-.02-.01-.05-.02-.07-2.8-12.06,4.93-21.66,16.59-24.36,11.65-2.7,22.82,2.52,25.62,14.58,1.89,8.14-.53,17.29-5.88,23.22-2.21,2.44-2.38,6.09-.25,8.59,11.76,13.78,16.54,34.8,11.46,53.61-7.49,27.7-33.54,40.08-59.64,33.02-26.1-7.06-42.36-30.87-34.87-58.58Z"/>
                <path class="cls-25" d="M49.12,550.32l.51-.36c-4.67-6.63-5.27-16.2-1.56-24.98,2.94-6.97,8.21-13.35,16.58-20.06,3.12-2.5,6.42-4.88,9.62-7.17,3.85-2.77,7.83-5.62,11.52-8.73,3.32-2.8,6.81-6.27,7.54-10.81,.37-2.26,.02-4.67-.31-7-.52-3.65-1-7.09,1.13-9.73l-.48-.39c-2.31,2.85-1.78,6.59-1.27,10.21,.32,2.28,.66,4.65,.31,6.82-.7,4.34-4.1,7.71-7.33,10.43-3.67,3.09-7.64,5.94-11.48,8.7-3.2,2.3-6.52,4.68-9.65,7.19-8.45,6.78-13.78,13.23-16.76,20.3-3.79,8.97-3.16,18.77,1.63,25.58Z"/>
                <path class="cls-25" d="M61.53,554.32l.58-.21c-3.18-8.79-2.25-19.6,2.55-29.64,4.76-9.96,12.54-18.08,18.79-24.04l-.43-.45c-6.29,6-14.12,14.17-18.92,24.22-4.87,10.19-5.81,21.17-2.58,30.12Z"/>
              </g>
              <path class="cls-18" d="M186.67,440.59l.22-7.16-7.48-14.86c-1.37-2.72-1.38-5.92-.03-8.65l8.48-17.12s4.9,37.15,6.18,40.24-3.49,8.64-3.49,8.64l-3.87-1.09Z"/>
              <path class="cls-36" d="M186.89,433.43s-22.76,62.05-61.55,81.45c0,0,12.91,21.06,19.65,22.34,0,0,41.43-53.03,45.66-96.47l-3.75-7.31Z"/>
              <path class="cls-52" d="M30.91,806.69l-1.14,9.41c-1.19,4.47-6.95,15.74-14.34,15.01-4.55-.45-5.09-13.73-4.46-15.73,1.15-3.63,3.27-9.09,6.31-12.3h10.44c1.93,0,3.43,1.69,3.19,3.6Z"/>
              <path class="cls-38" d="M112.67,696.46l1.76,10.36s-5.9,59.77-6.95,83.67c-.16,3.75,.81,7.45,2.77,10.65l10.26,16.66-26.08-15.39-.52-3.18,4.27-5.87-5.59-66.95c-.33-3.93,.48-7.88,2.34-11.36l5.39-10.13,12.34-8.46Z"/>
              <path class="cls-24" d="M122.23,820.22h-8.32c-1.56,0-3.03-.72-3.98-1.95-2.59-3.37-7.97-9.95-10.54-10.12-3.46-.23-3.02,12.07-3.02,12.07h-1.94l-2.46-15.28c-.62-3.85,1.29-7.65,4.75-9.46h0s.79,5.85,5.08,8.44c4.29,2.59,17.45,11.85,17.45,11.85,0,0,1.61-.23,3.38,.09,2.63,.47,2.26,4.36-.41,4.36Z"/>
              <path class="cls-22" d="M76.96,701.38s-34.57,65.57-40.06,80.54c-5.49,14.97-7.42,27.46-7.49,28.64-.12,1.85-2.41,3.62-8.75,3.62-3.27,0-4.87-1.31-5.66-2.58-.67-1.08-.7-2.44-.14-3.58,2-4.05,8.34-16.98,10.7-22.84,2.81-7,8.84-38.74,12.15-49.77,3.31-11.03,7.05-23,21.47-34.03,0,0,9.9-9.69,17.79,0Z"/>
              <path class="cls-54" d="M98.79,593.94c5.06-21.45-.03-37.61-5.38-47.58-4.27-7.95-1.27-17.78,6.74-21.94,12.51-6.5,25.19-9.55,25.19-9.55,0,0,24.78,18.12,21.84,32.3-1.72,8.31-17.42,49.78-17.42,49.78,0,0-14.51,6.87-30.97-3.02Z"/>
              <path class="cls-55" d="M79.02,612.65c3.63-10.93,19.77-18.71,19.77-18.71,16.46,9.89,30.97,3.02,30.97,3.02,0,0,3.25,12.44,1.01,24-2.25,11.56-16.34,85.86-16.34,85.86-22.21,4.5-56.36-4.53-56.36-4.53,14.15-25.11,17.32-78.72,20.95-89.65Z"/>
              <path class="cls-15" d="M109.14,489.91l-7.25,32.56c-.69,2.87,1.92,2.4,4.82,1.85,4.75-.9,10.87-2.74,12.92-6.43,.21-.38,.31-.8,.37-1.23l3.11-22.58c.25-1.79-.72-3.53-2.37-4.26l-6.01-2.66c-2.31-1.03-4.99,.29-5.59,2.75Z"/>
              <path class="cls-10" d="M199.75,468.4s-19.08,66.28-96.02,60.05c-4.92-.4-9.25,3.25-9.63,8.17l-.21,2.66c-.55,7.13,5.27,13.14,12.41,12.78,25.59-1.29,80.55-11.34,99.38-72.15l-5.94-11.52Z"/>
              <path class="cls-27" d="M205.69,479.93s3.67-10.79,4.59-17.53c.92-6.74-2.47-21.88-5.38-26.14-2.91-4.26-3.4,6.18-4.71,11.08-1.31,4.9,.91,11.9,.91,11.9l-1.34,9.17,5.94,11.52Z"/>
              <g>
                <path class="cls-8" d="M124.01,463.05s18.33,26.7,6.93,34.14c-11.4,7.44-24.45-11.54-24.45-11.54,0,0-4.1-14.5,.56-19.31,4.66-4.81,16.95-3.3,16.95-3.3Z"/>
                <path class="cls-12" d="M116.32,456.57s7.97,2.05,9.03,5.7c1.05,3.65-11.49,6.77-14.99,6.87l-3.09,14.57s-8.07-13.92-4.62-21.8c3.45-7.88,13.68-5.34,13.68-5.34Z"/>
                <path class="cls-50" d="M110.18,483.79s-7.17-8.63-10.19-3.15,6.41,9.81,9.76,7.16l.43-4.01Z"/>
              </g>
            </g>
          </g>
          <g>
            <g>
              <path class="cls-17" d="M647.46,459.45c-.17,.33-11.12,8.38-11.12,8.38,0,0,2.42,17.29,12.23,24.12,10.79,7.51,26.03-6.18,26.03-6.18,0,0,12.13,2.88,18.57-22.36,1.48-5.79-7.06-6.28-17.37-5.21-13.29,1.38-28.35,1.26-28.35,1.26Z"/>
              <path class="cls-31" d="M627.01,518.43c4.28-2.94,9.01-5.16,14.03-6.53,1.88-.51,12.06,2.44,18.35,2.3,8.64-.2,17.43-4.13,24.54-2.35,7.07,1.76,12.86,4.06,16.2,6.44,10,7.11,15.87,20.38,19.45,33.52-6.78,6.96-15.3,10.05-15.3,10.05l-1.58,63.86-37.76,19.32-43.1-21.64,1.54-62.41s-13.69-6.37-14.69-8.69c-1-2.32,6.24-25.56,18.31-33.86Z"/>
              <path class="cls-39" d="M609.33,552.02s-18.34,50.85,23.48,71.75c8.68-1.15,5.34-15.58,5.34-15.58,0,0-18.17-4.02-12.72-46.44-5.03-4.13-16.11-9.73-16.11-9.73Z"/>
              <path class="cls-49" d="M718.71,552.02s12.62,53.08-23.48,71.75c-8.68-1.15-5.34-15.58-5.34-15.58,0,0,14.65-7.21,12.72-46.44,5.03-4.13,16.11-9.73,16.11-9.73Z"/>
              <rect class="cls-37" x="621.34" y="571.41" width="82.81" height="55.93" rx="8.33" ry="8.33"/>
              <g>
                <path class="cls-32" d="M740.48,643.92c-9.48-2.18-31.38-1.01-31.38-1.01l-.89,2.41-1.48,11.99s20.86,3.76,31.14,3.75c1.05,0,2.01-.16,2.89-.43,.31-.28,.62-.57,.91-.89,4.36-4.76,3.1-11.76-1.19-15.83Z"/>
                <path class="cls-56" d="M702.8,642.24l3.71,.16c1.99,.08,3.87,1.06,5.21,2.69,1.34,1.64,2.03,3.81,1.91,6.01-.09,1.76-.82,3.41-2.01,4.58-1.19,1.17-2.75,1.76-4.34,1.65l-5.68-.4,1.19-14.69Z"/>
              </g>
              <g>
                <path class="cls-43" d="M578.09,642.77c9.53-1.88,31.39-.04,31.39-.04l.83,2.44,1.18,12.03s-20.95,3.12-31.22,2.79c-1.05-.03-2-.22-2.87-.52-.31-.29-.61-.59-.89-.92-4.24-4.9-2.81-11.85,1.58-15.79Z"/>
                <path class="cls-14" d="M615.79,642.24l-3.71,.04c-1.99,.02-3.9,.94-5.28,2.53-1.38,1.6-2.12,3.74-2.06,5.95,.05,1.76,.73,3.43,1.89,4.63,1.16,1.2,2.71,1.84,4.3,1.78l5.68-.23-.82-14.72Z"/>
              </g>
              <path class="cls-46" d="M743.13,606.32c-4.3-9.89-14.81-11.5-23.76-6.87-.16,.2-56.82,29.24-106.79,41.97,1.43,4.59,2.17,9.47,2.33,14.26,.03,1.07,.01,2.12-.05,3.16,38.32-1.97,79.91-14.75,115.64-25.98,11.08-3.57,17.39-15.58,12.63-26.55Z"/>
              <path class="cls-47" d="M703.08,656.44c-.15-5.53,.93-10.68,3.22-15.44,.07-.22,.14-.43,.21-.64-2.85-.88-6.54-2.08-11.38-3.72-35.48-12.14-62.55-24.4-88.39-38.52-10.04-5.48-21.45-1.81-24.66,10.07-2.87,10.6,3.43,19.65,12.99,22.83,28.6,9.52,13.71,6.87,23.05,9.88,25.08,7.76,56.3,14.82,85.01,16.75-.02-.4-.05-.8-.06-1.2Z"/>
              <path class="cls-29" d="M641.04,511.9s3.82,16.54,22.34,16.19c18.87-.34,20.55-16.25,20.55-16.25l-12.33-2.64-1.03-13.74-18.54,1.37-.34,13.05-10.65,2.01Z"/>
              <path class="cls-21" d="M654.64,456.56s-21.25,41.16,3.96,51.15c17.78,7.04,28.93-27.33,25.6-36.65-5.14-14.4-8.53-12.69-8.53-12.69l-21.03-1.81Z"/>
              <path class="cls-44" d="M689.31,452.82c10.5,2.89,1.53,25.65-14.28,20.27-15.81-5.38-22.02-5.31-24.48-.97-2.46,4.34-2.99,19.75-8.34,12.13-5.86-8.35-9.13-25.11-1.94-30.52,6.42-4.83,7.92-12.32,15.62-12.06,10.22,.34,18.12-4.19,22.74-.92,5.3,3.75,2.96,9.93,10.68,12.06Z"/>
              <path class="cls-35" d="M649.58,475.66s-4.53-4.88-5.26,1c-.73,5.88,1.6,13.45,4.33,9.3,2.73-4.15,.93-10.3,.93-10.3Z"/>
            </g>
            <path class="cls-25" d="M667.64,586.56c.44,2.97-1.15,5.66-4.12,6.1s-5.73-1.61-6.17-4.58c-.44-2.97,.92-5.91,3.89-6.35,2.97-.44,5.96,1.86,6.4,4.83Z"/>
          </g>
          <g>
            <circle class="cls-2" cx="517.86" cy="486.33" r="82.78"/>
            <g>
              <path class="cls-25" d="M443.69,481.94l18.88-9.85v4.2c0,.32-.08,.61-.24,.87-.16,.26-.42,.49-.79,.68l-8.66,4.44c-.37,.19-.75,.35-1.16,.49-.41,.14-.84,.26-1.3,.37,.46,.11,.89,.23,1.3,.37,.41,.14,.79,.3,1.16,.49l8.66,4.46c.37,.19,.63,.42,.79,.68,.16,.26,.24,.55,.24,.87v4.2l-18.88-9.87v-2.38Z"/>
              <path class="cls-25" d="M471.18,499.21v-35.43h5.89v13.61c.95-.91,2-1.64,3.15-2.19,1.14-.56,2.49-.83,4.03-.83,1.34,0,2.52,.23,3.55,.68,1.03,.45,1.9,1.09,2.59,1.91,.69,.82,1.22,1.8,1.57,2.93s.54,2.39,.54,3.76v15.57h-5.89v-15.57c0-1.49-.35-2.65-1.04-3.47-.69-.82-1.73-1.23-3.11-1.23-1.02,0-1.97,.23-2.86,.69-.89,.46-1.73,1.09-2.53,1.88v17.69h-5.89Z"/>
              <path class="cls-25" d="M506.32,499.59c-2.11,0-3.74-.6-4.89-1.8-1.14-1.2-1.72-2.86-1.72-4.97v-13.66h-2.48c-.32,0-.59-.1-.82-.31-.23-.21-.35-.52-.35-.93v-2.34l3.93-.64,1.24-6.68c.06-.32,.21-.56,.44-.74,.23-.17,.52-.26,.87-.26h3.05v7.7h6.44v4.2h-6.44v13.26c0,.76,.19,1.36,.57,1.79,.38,.43,.89,.64,1.53,.64,.37,0,.67-.04,.92-.13,.25-.09,.46-.18,.64-.27,.18-.1,.35-.19,.49-.27,.14-.09,.29-.13,.43-.13,.17,0,.32,.04,.43,.13,.11,.09,.23,.22,.36,.39l1.76,2.86c-.86,.72-1.84,1.26-2.96,1.62-1.11,.37-2.27,.55-3.46,.55Z"/>
              <path class="cls-25" d="M516.74,499.21v-24.46h3.6c.76,0,1.26,.36,1.5,1.07l.38,1.81c.43-.48,.88-.91,1.35-1.31,.47-.4,.97-.74,1.5-1.03,.53-.29,1.1-.51,1.72-.68,.61-.17,1.28-.25,2.01-.25,1.54,0,2.81,.42,3.8,1.25,.99,.83,1.74,1.94,2.23,3.33,.38-.81,.86-1.51,1.43-2.09,.57-.58,1.2-1.05,1.88-1.42,.68-.36,1.41-.63,2.18-.81,.77-.17,1.55-.26,2.32-.26,1.35,0,2.55,.21,3.6,.62,1.05,.41,1.93,1.02,2.65,1.81,.72,.8,1.26,1.77,1.63,2.91,.37,1.14,.56,2.46,.56,3.93v15.57h-5.89v-15.57c0-1.56-.34-2.73-1.02-3.52-.68-.79-1.69-1.18-3-1.18-.6,0-1.16,.1-1.68,.31-.52,.21-.97,.5-1.36,.89s-.7,.88-.92,1.47c-.22,.59-.33,1.26-.33,2.03v15.57h-5.91v-15.57c0-1.64-.33-2.83-.99-3.58-.66-.75-1.63-1.12-2.92-1.12-.84,0-1.63,.21-2.37,.63-.74,.42-1.43,1-2.06,1.73v17.91h-5.89Z"/>
              <path class="cls-25" d="M563.17,463.77v35.43h-5.89v-35.43h5.89Z"/>
              <path class="cls-25" d="M572.13,494.2v-4.2c0-.32,.08-.61,.24-.87,.16-.26,.42-.49,.79-.68l8.66-4.46c.7-.35,1.52-.64,2.46-.86-.46-.11-.89-.23-1.3-.37-.41-.14-.79-.3-1.16-.49l-8.66-4.44c-.37-.19-.63-.42-.79-.68-.16-.26-.24-.55-.24-.87v-4.2l18.88,9.85v2.38l-18.88,9.87Z"/>
            </g>
          </g>
          <g>
            <circle class="cls-2" cx="742.28" cy="338.42" r="64" transform="translate(242.37 983.09) rotate(-76.72)"/>
            <g>
              <path class="cls-25" d="M703.41,350.26l-13.8-8.54v-3.05l13.8-8.5v4.41l-9.54,5.62,9.54,5.66v4.41Z"/>
              <path class="cls-25" d="M727.44,329.98c-1.53,0-2.73,.89-3.61,2.68-.88,1.79-1.32,4.27-1.32,7.46,0,6.63,1.73,9.95,5.19,9.95,1.51,0,3.1-.48,4.76-1.45v4.74c-1.4,.93-3.19,1.39-5.37,1.39-3.22,0-5.7-1.28-7.43-3.85-1.73-2.56-2.59-6.17-2.59-10.82s.89-8.27,2.67-10.87c1.78-2.6,4.26-3.9,7.43-3.9,1.04,0,2.05,.14,3.01,.43,.96,.29,1.99,.79,3.08,1.51l-1.76,4.33c-.59-.4-1.21-.77-1.88-1.11-.67-.33-1.39-.5-2.17-.5Z"/>
              <path class="cls-25" d="M749.55,346.46c0,2.68-.68,4.73-2.03,6.15-1.35,1.42-3.3,2.13-5.85,2.13s-4.61-.49-6.36-1.47v-5.27c2.14,1.4,4.11,2.09,5.89,2.09,1.02,0,1.78-.28,2.3-.84,.52-.56,.77-1.32,.77-2.29s-.31-1.82-.92-2.61c-.61-.79-1.63-1.67-3.04-2.63-1.23-.85-2.16-1.66-2.79-2.44-.63-.78-1.12-1.65-1.47-2.61-.35-.97-.52-2.09-.52-3.37,0-2.45,.68-4.4,2.05-5.83,1.36-1.44,3.19-2.15,5.49-2.15s4.3,.61,6.32,1.84l-1.76,4.27c-.63-.37-1.28-.69-1.97-.98-.69-.29-1.42-.43-2.2-.43-.86,0-1.52,.28-1.99,.85-.46,.57-.7,1.34-.7,2.32s.28,1.81,.83,2.53c.55,.72,1.52,1.53,2.91,2.45,1.87,1.25,3.17,2.53,3.91,3.84,.74,1.31,1.11,2.79,1.11,4.46Z"/>
              <path class="cls-25" d="M766.11,346.46c0,2.68-.68,4.73-2.03,6.15-1.35,1.42-3.3,2.13-5.85,2.13s-4.61-.49-6.36-1.47v-5.27c2.14,1.4,4.1,2.09,5.89,2.09,1.02,0,1.78-.28,2.3-.84,.52-.56,.77-1.32,.77-2.29s-.31-1.82-.92-2.61c-.61-.79-1.63-1.67-3.04-2.63-1.23-.85-2.16-1.66-2.79-2.44-.63-.78-1.12-1.65-1.47-2.61-.35-.97-.52-2.09-.52-3.37,0-2.45,.68-4.4,2.05-5.83,1.36-1.44,3.19-2.15,5.49-2.15s4.3,.61,6.32,1.84l-1.76,4.27c-.63-.37-1.28-.69-1.97-.98-.69-.29-1.42-.43-2.2-.43-.86,0-1.52,.28-1.99,.85-.46,.57-.7,1.34-.7,2.32s.28,1.81,.83,2.53c.55,.72,1.52,1.53,2.91,2.45,1.87,1.25,3.17,2.53,3.91,3.84,.74,1.31,1.11,2.79,1.11,4.46Z"/>
              <path class="cls-25" d="M779.1,345.86l9.59-5.66-9.59-5.62v-4.41l13.8,8.5v3.05l-13.8,8.54v-4.41Z"/>
            </g>
          </g>
          <g>
            <circle class="cls-2" cx="603.11" cy="354.91" r="46.65" transform="translate(119.13 860.35) rotate(-76.72)"/>
            <g>
              <path class="cls-25" d="M578.45,354.99l13.48-7.03v3c0,.23-.06,.43-.17,.62-.11,.19-.3,.35-.56,.49l-6.18,3.17c-.26,.14-.54,.25-.83,.35-.29,.1-.6,.18-.93,.26,.33,.08,.64,.17,.93,.26,.29,.1,.56,.21,.83,.35l6.18,3.18c.26,.14,.45,.3,.56,.49,.11,.19,.17,.39,.17,.62v3l-13.48-7.05v-1.7Z"/>
              <path class="cls-25" d="M599.54,367.36c-.1,.26-.23,.49-.39,.68-.16,.19-.34,.35-.54,.48s-.42,.23-.65,.3c-.23,.07-.45,.1-.66,.1h-1.77l9.94-25.43c.19-.48,.47-.84,.83-1.1,.36-.26,.8-.38,1.31-.38h1.79l-9.86,25.35Z"/>
              <path class="cls-25" d="M612.9,363.74v-3c0-.23,.06-.43,.17-.62,.11-.19,.3-.35,.56-.49l6.18-3.18c.5-.25,1.08-.45,1.75-.61-.33-.08-.64-.17-.93-.26-.29-.1-.57-.21-.83-.35l-6.18-3.17c-.26-.14-.45-.3-.56-.49-.11-.19-.17-.39-.17-.62v-3l13.48,7.03v1.7l-13.48,7.05Z"/>
            </g>
          </g>
          <g>
            <g>
              <g class="cls-28">
                <path class="cls-20" d="M553.44,155.77c-1.58-.46-2.59-2.06-2.29-3.72,.66-3.63,1.49-7.28,2.47-10.86,.47-1.74,2.27-2.77,4.01-2.29,.02,0,.04,.01,.06,.02,1.7,.5,2.7,2.27,2.23,3.99-.93,3.4-1.72,6.87-2.35,10.31-.32,1.77-2.03,2.95-3.8,2.62-.11-.02-.23-.05-.33-.08Zm8.21-27.23c-.12-.04-.24-.08-.37-.13-1.66-.71-2.43-2.63-1.72-4.28,1.45-3.41,3.07-6.79,4.79-10.04,.85-1.59,2.81-2.2,4.41-1.35,1.59,.85,2.2,2.82,1.35,4.41-1.64,3.1-3.17,6.3-4.55,9.54-.66,1.54-2.35,2.31-3.92,1.85Zm14-24.75c-.35-.1-.69-.27-1-.49-1.46-1.06-1.78-3.1-.73-4.56,2.17-2.99,4.5-5.93,6.92-8.72,1.18-1.36,3.24-1.51,4.61-.33,1.36,1.18,1.51,3.24,.33,4.61-2.3,2.66-4.51,5.44-6.57,8.28-.83,1.15-2.27,1.6-3.56,1.22Zm19.19-21c-.58-.17-1.11-.5-1.54-.99-1.19-1.36-1.05-3.42,.31-4.61,2.79-2.43,5.71-4.77,8.69-6.96,1.45-1.06,3.5-.75,4.56,.7,1.07,1.45,.75,3.5-.7,4.56-2.83,2.07-5.61,4.3-8.26,6.61-.87,.76-2.03,.98-3.07,.67Zm23.39-16.2c-.81-.24-1.52-.78-1.96-1.58-.86-1.59-.26-3.57,1.33-4.42,3.25-1.75,6.62-3.39,10.01-4.86,1.65-.72,3.58,.04,4.3,1.69,.72,1.65-.04,3.58-1.69,4.3-3.23,1.4-6.43,2.95-9.52,4.62-.79,.42-1.67,.49-2.47,.26Zm26.39-10.62c-1.05-.31-1.92-1.13-2.23-2.26-.48-1.74,.53-3.54,2.27-4.02,3.56-.99,7.21-1.84,10.84-2.52,1.77-.33,3.48,.83,3.81,2.61,.33,1.77-.83,3.48-2.6,3.81-3.45,.65-6.92,1.46-10.3,2.4-.61,.17-1.23,.15-1.79-.01Zm116.99,26.21c-.43-.13-.85-.35-1.21-.66-2.66-2.29-5.45-4.5-8.3-6.56-1.46-1.06-1.79-3.1-.73-4.56,1.06-1.46,3.1-1.79,4.56-.74,3,2.17,5.94,4.49,8.74,6.9,1.37,1.18,1.52,3.24,.34,4.61-.86,1-2.2,1.35-3.39,1Zm-88.93-30.71c-1.3-.38-2.28-1.55-2.34-2.98-.08-1.8,1.31-3.33,3.11-3.41,3.69-.17,7.44-.19,11.13-.04,1.8,.08,3.21,1.59,3.14,3.39-.07,1.8-1.59,3.21-3.39,3.14-3.51-.14-7.06-.12-10.57,.04-.37,.02-.73-.03-1.07-.13Zm65.44,14.68c-.21-.06-.41-.14-.61-.25-3.1-1.64-6.32-3.17-9.56-4.54-1.66-.7-2.44-2.62-1.73-4.28,.7-1.66,2.62-2.44,4.28-1.73,3.41,1.45,6.79,3.05,10.06,4.78,1.59,.84,2.2,2.82,1.36,4.41-.74,1.4-2.34,2.04-3.8,1.61Zm-37.07-12.8c-1.58-.46-2.59-2.06-2.29-3.71,.32-1.77,2.02-2.95,3.79-2.63,3.63,.66,7.29,1.48,10.86,2.45,.02,0,.05,.01,.07,.02,1.7,.5,2.7,2.27,2.23,3.99-.47,1.74-2.26,2.77-4,2.3-3.39-.92-6.86-1.7-10.32-2.32-.12-.02-.23-.05-.34-.08Z"/>
                <path class="cls-16" d="M777.53,98.65c-.62-.18-1.19-.54-1.62-1.08-1.06-1.31-2.16-2.62-3.27-3.9-1.19-1.36-1.05-3.42,.31-4.61,1.36-1.19,3.42-1.05,4.61,.31,1.17,1.34,2.33,2.72,3.44,4.1,1.13,1.4,.91,3.46-.49,4.59-.87,.7-1.98,.88-2.97,.59Z"/>
              </g>
              <g class="cls-28">
                <path class="cls-26" d="M804.72,194.41c-1.51-.44-2.52-1.93-2.32-3.54,.21-1.67,.39-3.37,.54-5.06,.15-1.8,1.73-3.13,3.53-2.98,1.8,.15,3.13,1.73,2.98,3.53-.15,1.78-.34,3.57-.57,5.33-.23,1.79-1.86,3.05-3.65,2.83-.18-.02-.35-.06-.51-.11Z"/>
                <path class="cls-45" d="M642.9,300.54c-1.44-.42-2.88-.87-4.32-1.35-1.71-.57-2.64-2.41-2.08-4.12,.57-1.71,2.42-2.65,4.12-2.08,3.32,1.1,6.67,2.05,10.01,2.86,1.75,.43,2.83,2.18,2.41,3.94-.42,1.75-2.19,2.83-3.94,2.41-2.06-.5-4.15-1.05-6.21-1.66Zm-20.28-7.86c-.18-.05-.35-.12-.52-.2-3.27-1.6-6.51-3.35-9.63-5.22-1.55-.92-2.05-2.93-1.13-4.48,.93-1.55,2.93-2.06,4.48-1.13,2.96,1.77,6.04,3.44,9.15,4.96,1.62,.79,2.29,2.75,1.5,4.37-.71,1.45-2.35,2.14-3.85,1.7Zm43.43,12.37c-1.48-.43-2.48-1.87-2.33-3.45,.18-1.8,1.78-3.1,3.57-2.93,3.43,.34,6.93,.54,10.39,.59,1.8,.03,3.24,1.51,3.22,3.31-.03,1.8-1.51,3.24-3.31,3.22-3.64-.05-7.32-.26-10.94-.62-.21-.02-.41-.06-.6-.12Zm-67.08-27.35c-.4-.12-.78-.31-1.12-.59-2.84-2.28-5.62-4.7-8.25-7.21-1.31-1.24-1.36-3.31-.11-4.61,1.24-1.31,3.31-1.36,4.62-.12,2.5,2.38,5.14,4.68,7.83,6.85,1.41,1.13,1.63,3.18,.5,4.59-.85,1.06-2.24,1.45-3.47,1.09Zm95.05,27.02c-1.21-.36-2.16-1.4-2.32-2.73-.22-1.79,1.05-3.42,2.84-3.64,3.42-.42,6.87-1,10.26-1.71,1.76-.37,3.5,.76,3.87,2.53,.37,1.76-.76,3.49-2.52,3.86-3.57,.75-7.2,1.35-10.8,1.8-.46,.06-.9,.02-1.32-.11Zm27.22-6.46c-.97-.28-1.79-1.01-2.16-2.03-.61-1.7,.28-3.57,1.98-4.17,3.26-1.16,6.5-2.48,9.65-3.91,1.64-.75,3.58-.02,4.32,1.62,.75,1.64,.02,3.58-1.62,4.32-3.31,1.5-6.72,2.89-10.15,4.11-.67,.24-1.38,.25-2.01,.06Zm25.17-12.24c-.74-.22-1.4-.69-1.84-1.39-.96-1.52-.5-3.54,1.02-4.5,2.93-1.85,5.81-3.83,8.57-5.91,1.44-1.09,3.49-.8,4.57,.64,1.09,1.44,.8,3.49-.64,4.57-2.9,2.19-5.93,4.28-9.01,6.22-.82,.52-1.79,.62-2.66,.37Zm21.9-17.44c-.51-.15-.99-.43-1.39-.83-1.27-1.28-1.27-3.34,.01-4.62,2.45-2.44,4.83-5.01,7.06-7.65,1.17-1.38,3.23-1.54,4.6-.38,1.38,1.17,1.55,3.23,.38,4.6-2.35,2.77-4.85,5.48-7.43,8.05-.88,.87-2.12,1.14-3.22,.82Zm17.54-21.83c-.29-.08-.57-.21-.83-.38-1.52-.97-1.97-2.98-1.01-4.51,1.85-2.91,3.6-5.94,5.2-9.01,.83-1.6,2.81-2.21,4.41-1.38,1.6,.83,2.22,2.81,1.38,4.41-1.69,3.23-3.53,6.42-5.47,9.48-.8,1.26-2.31,1.78-3.67,1.39Zm12.31-25.13c-.06-.02-.13-.04-.19-.06-1.7-.61-2.58-2.48-1.96-4.18,.86-2.39,1.66-4.84,2.38-7.28,.26-.88,.51-1.77,.75-2.65,.47-1.74,2.26-2.77,4-2.3,1.77,.44,2.77,2.26,2.3,4-.25,.93-.51,1.86-.78,2.79-.75,2.56-1.59,5.14-2.5,7.66-.59,1.63-2.34,2.51-3.99,2.03Z"/>
                <path class="cls-23" d="M579.16,257.81c-.62-.18-1.2-.55-1.63-1.1-1.1-1.38-2.2-2.81-3.25-4.26-1.07-1.46-.75-3.5,.71-4.56,1.46-1.06,3.5-.75,4.56,.71,1,1.37,2.04,2.73,3.09,4.04,1.12,1.41,.89,3.46-.52,4.59-.86,.69-1.97,.87-2.96,.58Z"/>
              </g>
              <g>
                <path class="cls-13" d="M594.04,222.71c.25,.6,.86,.97,1.51,.93l18.53-1.25c5.1,7.01,11.36,13.26,18.65,18.42l-1,18.53c-.04,.65,.35,1.25,.95,1.5l20.64,8.39c.6,.25,1.3,.08,1.72-.41l12.21-13.98c8.82,1.39,17.66,1.28,26.21-.18l12.4,13.82c.43,.48,1.13,.64,1.73,.39l20.53-8.66c.6-.25,.97-.86,.93-1.51l-1.25-18.53c7.01-5.1,13.26-11.37,18.42-18.65l18.53,1c.65,.04,1.25-.35,1.5-.95l8.39-20.64c.25-.6,.08-1.3-.41-1.72l-13.98-12.21c1.39-8.82,1.28-17.66-.18-26.21l13.82-12.4c.48-.43,.64-1.13,.39-1.73l-8.66-20.53c-.25-.6-.86-.97-1.51-.93l-18.53,1.25c-5.1-7.01-11.36-13.26-18.65-18.42l1-18.53c.04-.65-.35-1.25-.95-1.5l-20.64-8.39c-.6-.25-1.3-.08-1.72,.41l-12.21,13.98c-8.82-1.39-17.66-1.28-26.21,.18l-12.4-13.82c-.43-.48-1.13-.64-1.73-.39l-20.53,8.66c-.6,.25-.97,.86-.93,1.51l1.25,18.53c-7.01,5.1-13.26,11.37-18.42,18.65l-18.53-1c-.65-.04-1.25,.35-1.5,.95l-8.39,20.64c-.25,.6-.08,1.3,.41,1.72l13.98,12.21c-1.39,8.82-1.28,17.66,.18,26.21l-13.82,12.4c-.48,.43-.64,1.13-.39,1.73l8.66,20.53Z"/>
                <path class="cls-3" d="M673.52,195.91c-10.47-3.07-17.42-13.46-15.86-24.59,1.71-12.23,13.05-20.79,25.28-19.08,5.92,.83,11.17,3.91,14.77,8.69,3.6,4.77,5.13,10.67,4.3,16.59-1.71,12.23-13.05,20.79-25.28,19.08-1.1-.15-2.18-.39-3.22-.69Zm11.18-37.95c-.81-.24-1.64-.42-2.49-.54-9.38-1.31-18.07,5.25-19.38,14.63-1.31,9.38,5.25,18.07,14.63,19.38,9.38,1.31,18.07-5.25,19.38-14.63,.64-4.54-.54-9.06-3.3-12.72-2.25-2.98-5.32-5.1-8.84-6.13Z"/>
                <path class="cls-3" d="M664.86,227.08c-1.8-.53-3.58-1.15-5.34-1.86h0c-.55-.22-1.1-.46-1.65-.7-2.7-1.2-5.29-2.61-7.75-4.21-.03-.02-.07-.04-.1-.07-.09-.06-.19-.12-.28-.19-.18-.12-.37-.25-.55-.37-.48-.33-.67-.92-.52-1.45,.04-.13,.1-.25,.18-.37,.41-.6,1.22-.75,1.81-.34,3.07,2.09,6.38,3.87,9.85,5.27,17.22,7,36.03,4.16,50.17-5.87,7.86-5.58,14.28-13.38,18.18-22.96,.68-1.68,1.28-3.38,1.78-5.1,3.38-11.55,2.7-23.81-2.04-35.05-5.45-12.91-15.59-22.92-28.57-28.2-26.8-10.9-57.45,2.04-68.34,28.83-.67,1.65-1.26,3.33-1.76,5.03-2.16,7.37-2.68,15.12-1.5,22.72,.03,.2,.02,.39-.04,.57-.14,.47-.54,.84-1.05,.92-.71,.11-1.38-.38-1.49-1.09-1.24-7.97-.69-16.12,1.58-23.85,.52-1.78,1.14-3.55,1.84-5.28,11.44-28.13,43.63-41.7,71.75-30.27,13.62,5.54,24.28,16.05,29.99,29.61,4.98,11.8,5.7,24.67,2.14,36.79-.53,1.8-1.15,3.59-1.87,5.35-5.54,13.63-16.05,24.28-29.6,29.99-11.8,4.98-24.67,5.69-36.8,2.14Z"/>
              </g>
            </g>
            <g>
              <g class="cls-28">
                <path class="cls-30" d="M422.31,206.99c-.84-.25-1.45-1.02-1.45-1.93,0-1.71,.05-3.45,.15-5.16,.07-1.11,1.02-1.96,2.13-1.89,1.11,.06,1.96,1.02,1.89,2.13-.1,1.63-.15,3.28-.15,4.92,0,1.11-.9,2.02-2.02,2.02-.2,0-.39-.03-.57-.08Z"/>
                <path class="cls-40" d="M423.73,191.54c-.98-.29-1.6-1.28-1.41-2.3,.54-2.9,1.23-5.8,2.06-8.63,.17-.6,.36-1.19,.54-1.79,.34-1.06,1.51-1.59,2.53-1.32,1.06,.34,1.65,1.47,1.32,2.53-.18,.57-.35,1.14-.52,1.71-.79,2.7-1.45,5.47-1.97,8.23-.2,1.1-1.26,1.82-2.35,1.62-.07-.01-.14-.03-.2-.05Zm6.32-19.96c-.09-.03-.18-.06-.27-.1-1.01-.46-1.46-1.66-1-2.67,1.48-3.25,3.18-6.44,5.05-9.47,.58-.95,1.83-1.24,2.77-.66,.95,.58,1.25,1.82,.66,2.77-1.78,2.9-3.4,5.94-4.81,9.04-.42,.92-1.45,1.38-2.4,1.1Zm10.97-17.84c-.25-.07-.48-.19-.69-.36-.87-.7-1.01-1.97-.31-2.84,2.23-2.78,4.66-5.46,7.22-7.95,.8-.78,2.07-.76,2.85,.04,.78,.8,.76,2.08-.04,2.85-2.44,2.37-4.76,4.92-6.89,7.58-.53,.66-1.38,.9-2.14,.67Zm15.02-14.59c-.4-.12-.77-.36-1.04-.72-.67-.89-.5-2.15,.39-2.83,2.85-2.16,5.86-4.15,8.95-5.94,.96-.56,2.2-.22,2.75,.74,.56,.96,.23,2.2-.74,2.76-2.94,1.7-5.81,3.6-8.53,5.66-.53,.4-1.19,.5-1.79,.33Zm18.13-10.48c-.56-.16-1.04-.57-1.29-1.15-.44-1.02,.04-2.21,1.07-2.64,3.29-1.39,6.69-2.6,10.12-3.58,1.07-.31,2.19,.31,2.49,1.38,.31,1.07-.31,2.19-1.38,2.49-3.27,.94-6.52,2.09-9.65,3.42-.45,.19-.92,.21-1.36,.08Zm20.12-5.77c-.72-.21-1.3-.83-1.43-1.62-.17-1.1,.58-2.13,1.68-2.3,3.53-.55,7.12-.89,10.68-1.01,1.12-.03,2.04,.84,2.08,1.95,.04,1.11-.84,2.04-1.95,2.08-3.4,.11-6.82,.43-10.18,.96-.3,.05-.6,.02-.88-.06Zm20.91-.67c-.91-.27-1.53-1.14-1.44-2.12,.1-1.11,1.08-1.93,2.19-1.82,3.54,.33,7.11,.88,10.61,1.65,1.09,.26,1.78,1.32,1.54,2.4-.24,1.09-1.31,1.78-2.4,1.54-3.33-.73-6.74-1.26-10.12-1.57-.13-.01-.26-.04-.38-.07Zm30.12,8.56c-.11-.03-.22-.08-.33-.13-2.63-1.31-5.38-2.49-8.18-3.53-.42-.16-.84-.31-1.26-.45-1.05-.37-1.6-1.52-1.24-2.57,.37-1.05,1.54-1.63,2.57-1.24,.44,.16,.89,.32,1.33,.48,2.92,1.08,5.8,2.32,8.56,3.7,1,.5,1.4,1.7,.91,2.7-.44,.89-1.45,1.31-2.37,1.04Z"/>
              </g>
              <g class="cls-28">
                <path class="cls-9" d="M484.61,288.94c-1.06-.31-1.67-1.41-1.37-2.48,.3-1.07,1.41-1.7,2.48-1.4,3.23,.9,6.54,1.61,9.84,2.12,1.09,.18,1.86,1.2,1.69,2.3-.17,1.1-1.2,1.86-2.3,1.69-3.46-.53-6.94-1.27-10.32-2.22,0,0-.02,0-.03,0Zm-9.75-3.37c-.07-.02-.14-.04-.21-.07-3.24-1.34-6.44-2.89-9.5-4.61-.97-.55-1.32-1.77-.77-2.75,.55-.97,1.78-1.31,2.75-.77,2.92,1.64,5.97,3.12,9.06,4.4,1.03,.42,1.52,1.6,1.09,2.63-.4,.96-1.45,1.45-2.43,1.17Zm30.11,6.46c-.86-.25-1.47-1.06-1.45-1.99,.03-1.11,.96-1.99,2.07-1.96,3.35,.09,6.74-.02,10.07-.33,1.11-.1,2.09,.71,2.19,1.82,.1,1.11-.71,2.09-1.82,2.2-3.49,.33-7.04,.44-10.55,.34-.18,0-.35-.03-.51-.08Zm-48.06-16.57c-.22-.06-.43-.17-.63-.31-2.83-2.08-5.56-4.36-8.11-6.78-.81-.76-.85-2.04-.08-2.85,.76-.81,2.04-.84,2.85-.08,2.43,2.3,5.03,4.47,7.73,6.46,.9,.66,1.09,1.92,.43,2.82-.52,.7-1.4,.97-2.19,.74Zm68.56,14.66c-.69-.2-1.24-.76-1.4-1.51-.24-1.09,.45-2.16,1.54-2.4,3.27-.71,6.53-1.63,9.69-2.74,1.05-.37,2.2,.19,2.57,1.24,.37,1.05-.19,2.2-1.24,2.57-3.31,1.16-6.73,2.12-10.16,2.87-.34,.07-.68,.06-1-.04Zm19.44-6.78c-.52-.15-.98-.52-1.24-1.05-.49-1-.08-2.21,.92-2.7,3.01-1.48,5.96-3.15,8.76-4.98,.93-.61,2.18-.34,2.79,.59,.61,.93,.34,2.18-.59,2.79-2.94,1.91-6.03,3.67-9.18,5.22-.47,.23-.99,.26-1.46,.13Zm17.26-11.24c-.37-.11-.71-.32-.98-.64-.72-.85-.61-2.13,.25-2.84,2.57-2.15,5.03-4.49,7.31-6.93,.76-.81,2.04-.86,2.85-.1,.81,.76,.86,2.04,.1,2.85-2.39,2.56-4.97,5.01-7.66,7.27-.54,.45-1.24,.57-1.87,.39Z"/>
                <path class="cls-53" d="M441.87,261.25c-.37-.11-.72-.33-.99-.65-1.1-1.33-2.16-2.7-3.17-4.07-.66-.9-.46-2.16,.44-2.82,.9-.65,2.16-.46,2.82,.44,.95,1.31,1.97,2.61,3.02,3.88,.71,.86,.59,2.13-.27,2.84-.54,.44-1.23,.56-1.85,.38Z"/>
              </g>
              <g>
                <path class="cls-34" d="M450.81,236.72c.17,.4,.57,.65,1.01,.62l12.4-.83c3.42,4.69,7.6,8.87,12.48,12.33l-.67,12.4c-.02,.43,.23,.84,.63,1l13.81,5.62c.4,.16,.87,.05,1.15-.27l8.17-9.35c5.9,.93,11.82,.86,17.54-.12l8.3,9.25c.29,.32,.76,.43,1.16,.26l13.74-5.79c.4-.17,.65-.57,.62-1.01l-.83-12.4c4.69-3.42,8.87-7.6,12.33-12.48l12.4,.67c.44,.02,.84-.23,1-.63l5.61-13.81c.16-.4,.05-.87-.27-1.15l-9.35-8.17c.93-5.9,.86-11.82-.12-17.54l9.25-8.3c.32-.29,.43-.76,.26-1.16l-5.79-13.74c-.17-.4-.57-.65-1.01-.62l-12.4,.83c-3.42-4.69-7.6-8.87-12.48-12.33l.67-12.4c.02-.43-.23-.84-.63-1l-13.81-5.61c-.4-.16-.87-.05-1.15,.27l-8.17,9.35c-5.9-.93-11.82-.86-17.54,.12l-8.3-9.25c-.29-.32-.76-.43-1.16-.26l-13.74,5.79c-.4,.17-.65,.57-.62,1.01l.83,12.4c-4.69,3.42-8.87,7.61-12.33,12.48l-12.4-.67c-.43-.02-.84,.23-1,.64l-5.61,13.81c-.16,.4-.05,.87,.27,1.15l9.35,8.17c-.93,5.9-.86,11.82,.12,17.54l-9.25,8.3c-.32,.29-.43,.76-.26,1.16l5.79,13.74Z"/>
                <path class="cls-3" d="M503.9,219.04c-3.12-.92-5.86-2.8-7.85-5.44-2.45-3.25-3.49-7.27-2.93-11.3,1.16-8.33,8.89-14.16,17.22-12.99,8.34,1.18,14.16,8.89,13,17.22-.56,4.04-2.67,7.61-5.92,10.06-3.25,2.46-7.27,3.5-11.3,2.93-.75-.11-1.49-.27-2.21-.48Zm7.49-25.4c-.52-.15-1.06-.27-1.61-.35-6.13-.85-11.81,3.43-12.66,9.56-.41,2.97,.35,5.92,2.16,8.31,1.81,2.39,4.44,3.94,7.4,4.35h0c2.97,.41,5.92-.35,8.31-2.16,2.39-1.81,3.94-4.44,4.35-7.4,.78-5.57-2.7-10.78-7.95-12.32Z"/>
                <path class="cls-3" d="M497.84,240.72c-1.22-.36-2.44-.78-3.65-1.27-2.4-.97-4.7-2.19-6.84-3.62-.1-.07-.19-.13-.29-.2-.74-.5-1.04-1.41-.8-2.23,.06-.2,.15-.39,.27-.57,.63-.92,1.88-1.15,2.8-.53,1.99,1.36,4.13,2.5,6.37,3.41h0c.12,.05,.25,.1,.37,.15,5.32,2.1,10.96,2.8,16.49,2.12,3-.37,5.97-1.14,8.84-2.32,.02,0,.05-.02,.07-.03,.07-.03,.14-.06,.21-.09,8.36-3.53,14.84-10.09,18.26-18.5,.44-1.09,.83-2.19,1.15-3.3,2.19-7.48,1.75-15.41-1.32-22.69-3.53-8.36-10.09-14.84-18.5-18.25-8.4-3.41-17.63-3.36-25.99,.17-8.36,3.53-14.84,10.09-18.26,18.5-.44,1.07-.81,2.16-1.14,3.26-1.4,4.77-1.74,9.79-.97,14.71,.05,.3,.02,.6-.06,.88-.21,.73-.83,1.3-1.63,1.43-1.1,.17-2.13-.58-2.3-1.68-.85-5.5-.47-11.12,1.09-16.45,.36-1.23,.78-2.45,1.27-3.64,3.82-9.4,11.08-16.75,20.43-20.69,9.35-3.94,19.67-4.02,29.07-.19,9.4,3.82,16.75,11.07,20.69,20.42,3.43,8.14,3.93,17.02,1.48,25.38-.36,1.24-.79,2.47-1.29,3.69-7.4,18.2-27.39,27.57-45.85,22.16Z"/>
              </g>
            </g>
          </g>
        </g>
      </g>
    </g>
  </g>
</svg>